<?xml version="1.0" encoding="utf-8"?>
<!-- Generator: Adobe Illustrator 16.2.1, SVG Export Plug-In . SVG Version: 6.00 Build 0)  -->
<!DOCTYPE svg PUBLIC "-//W3C//DTD SVG 1.1//EN" "http://www.w3.org/Graphics/SVG/1.1/DTD/svg11.dtd">
<svg version="1.1" id="Слой_1" xmlns="http://www.w3.org/2000/svg" xmlns:xlink="http://www.w3.org/1999/xlink" x="0px" y="0px"
	 width="32px" height="32px" viewBox="0 0 32 32" enable-background="new 0 0 32 32" xml:space="preserve">
<path fill="#E4E7E7" d="M20.796,20.835L20.796,20.835c-0.965,0.96-0.965,2.516,0,3.476l5.24,6.949c0.965,0.96,2.528,0.96,3.493,0
	l1.746-1.737c0.965-0.96,0.965-2.515,0-3.475l-6.985-5.213C23.325,19.875,21.761,19.875,20.796,20.835z"/>
<path fill="#C6C8C8" d="M30.529,30.26c-0.965,0.96-2.528,0.96-3.493,0l-5.24-6.949c-0.788-0.784-0.921-1.961-0.423-2.89
	c-0.205,0.11-0.403,0.241-0.577,0.414c-0.965,0.96-0.965,2.516,0,3.476l5.24,6.949c0.965,0.96,2.528,0.96,3.493,0l1.746-1.737
	c0.009-0.009,0.014-0.019,0.022-0.027L30.529,30.26z"/>
<path fill="#D27A49" d="M20.586,7.605c-1.529,0.919-3.945,0.354-5.743-1.46c-1.633-1.646-2.23-3.799-1.649-5.338
	C9.321-0.922,5.859,0.354,3.101,3.11c-3.762,3.761-4.791,8.828,0.852,14.469s15.821,9.718,19.583,5.958
	C26.58,20.493,24.486,13.248,20.586,7.605z"/>
<path fill="#9D5B37" d="M5.953,15.579c-5.145-5.144-4.734-9.807-1.771-13.44C3.811,2.437,3.45,2.762,3.101,3.11
	c-3.762,3.761-4.791,8.828,0.852,14.469s15.821,9.718,19.583,5.958c0.346-0.346,0.617-0.753,0.836-1.199
	C19.982,24.538,11.093,20.718,5.953,15.579z"/>
</svg>
