<svg xmlns="http://www.w3.org/2000/svg" width="31.988" height="32.031"><path fill="#E2574C" d="M29.541 2.468c3.273 3.273 3.273 8.58 0 11.854l-15.241 15.242c-3.273 3.271-8.58 3.271-11.854 0-3.273-3.275-3.273-8.582 0-11.855l15.24-15.241c3.274-3.274 8.581-3.274 11.855 0z"/><path fill="#EBEBEB" d="M17.686 2.468l-6.636 6.636 11.854 11.855 6.636-6.637c1.538-1.538 2.344-3.525 2.437-5.538v-.778c-.093-2.014-.898-4-2.437-5.538-1.543-1.543-3.538-2.349-5.559-2.438h-.737c-2.02.089-4.015.895-5.558 2.438z"/><rect x="7.596" y="14.617" transform="matrix(-.707 -.707 .707 -.707 15.94 38.665)" fill="#CB4E44" width="16.764" height="2.828"/></svg>